<?xml version="1.0" standalone="no"?>
<!DOCTYPE svg PUBLIC "-//W3C//DTD SVG 20010904//EN"
 "http://www.w3.org/TR/2001/REC-SVG-20010904/DTD/svg10.dtd">
<svg version="1.0" xmlns="http://www.w3.org/2000/svg"
 width="577.000000pt" height="434.000000pt" viewBox="0 0 577.000000 434.000000"
 preserveAspectRatio="xMidYMid meet">

<g transform="translate(0.000000,434.000000) scale(0.100000,-0.100000)"
fill="#000000" stroke="none">
<path d="M1152 3144 l-83 -114 10 -137 c13 -170 18 -313 10 -313 -3 0 -17 48
-30 107 l-24 106 -50 32 c-130 84 -207 125 -202 107 2 -9 19 -71 36 -137 36
-135 29 -127 171 -219 l95 -61 7 -122 c7 -133 30 -274 54 -341 27 -72 10 -58
-45 38 -29 49 -60 94 -69 99 -23 12 -263 64 -268 58 -3 -3 7 -22 21 -42 14
-21 46 -73 72 -117 50 -85 36 -76 183 -113 145 -36 138 -33 151 -73 23 -72
114 -238 176 -320 35 -46 63 -86 63 -89 0 -2 -35 20 -78 50 l-77 54 -138 -32
c-75 -17 -139 -34 -142 -36 -3 -3 23 -24 58 -46 34 -22 85 -57 114 -78 l51
-37 140 30 140 29 49 -45 c55 -51 166 -126 301 -202 51 -29 91 -55 89 -57 -2
-2 -36 3 -76 12 -40 8 -78 15 -85 15 -7 0 -42 -21 -77 -48 -126 -93 -171 -132
-157 -136 7 -2 60 -11 118 -21 58 -9 114 -19 126 -21 14 -4 51 19 130 79 l110
85 34 -15 c99 -43 247 -93 335 -114 109 -25 98 -37 -17 -19 -81 12 -60 23
-194 -103 -33 -32 -69 -64 -80 -71 -10 -8 -17 -17 -14 -19 4 -4 226 -27 262
-27 7 0 31 16 53 36 135 122 164 144 186 144 35 0 139 -23 139 -31 0 -4 -21
-10 -47 -13 -127 -17 -124 -16 -117 -39 4 -12 8 -23 9 -25 1 -1 70 9 153 23
l150 26 151 -25 c83 -15 153 -26 156 -26 3 0 5 11 5 24 0 23 -5 25 -90 37 -49
7 -90 16 -90 19 0 8 162 34 177 29 12 -4 105 -84 168 -142 l40 -38 80 7 c44 3
106 9 139 13 l59 6 -112 103 c-61 56 -114 102 -119 102 -4 0 -47 -7 -96 -15
-49 -8 -92 -13 -94 -10 -6 6 5 10 128 41 58 14 158 46 223 70 65 24 123 44
129 44 6 0 59 -36 117 -79 l106 -79 128 21 c70 12 128 26 128 31 1 8 -116 104
-190 156 l-34 24 -83 -17 c-114 -24 -119 -21 -38 17 120 56 309 186 369 254
l20 22 142 -31 142 -31 115 79 c63 43 113 79 111 81 -2 2 -65 18 -141 37 -155
37 -136 40 -240 -37 -28 -21 -54 -38 -58 -38 -4 0 10 21 31 48 79 95 164 239
203 344 l21 56 133 33 133 33 76 120 c42 67 72 122 67 124 -7 3 -212 -40 -262
-54 -9 -3 -40 -47 -69 -99 -29 -53 -54 -93 -57 -91 -2 3 3 26 12 53 24 74 46
216 53 345 l6 116 108 67 c60 37 112 72 117 79 8 10 83 279 79 283 -1 1 -59
-33 -129 -75 l-126 -76 -23 -108 c-13 -59 -27 -108 -31 -108 -12 0 -9 115 7
290 7 85 11 159 7 165 -3 5 -42 59 -86 119 l-81 109 -16 -154 -17 -154 60 -80
c69 -90 74 -104 82 -235 7 -108 -2 -105 -32 14 -12 43 -24 82 -29 87 -11 11
-246 139 -250 136 -1 -1 17 -65 41 -141 l43 -138 112 -66 111 -65 0 -55 c0
-68 -25 -242 -50 -342 l-19 -75 0 91 -1 90 -105 110 -104 109 -1 -144 0 -144
72 -81 c40 -45 80 -89 90 -99 17 -16 16 -20 -16 -91 -38 -83 -85 -160 -157
-254 -55 -73 -62 -69 -22 13 l27 55 -48 146 c-26 80 -51 142 -55 137 -5 -4
-32 -63 -61 -131 l-53 -124 38 -121 37 -121 -43 -38 c-83 -73 -402 -269 -415
-255 -2 2 30 30 71 62 41 32 75 65 75 72 0 8 7 75 16 149 8 75 14 138 12 140
-4 4 -67 -47 -160 -128 -56 -49 -57 -51 -64 -116 -4 -37 -12 -100 -18 -140
-13 -85 11 -68 -206 -141 -163 -56 -511 -141 -577 -143 -59 -1 -325 64 -645
159 -26 8 -22 23 5 23 55 0 87 86 52 137 -33 47 -127 32 -141 -22 -8 -32 3
-75 24 -99 16 -18 16 -18 -8 -11 -76 23 -71 13 -90 185 -7 58 -15 110 -19 117
-9 16 -205 183 -210 178 -4 -4 14 -198 25 -263 4 -26 21 -46 80 -94 41 -34 72
-63 70 -66 -15 -14 -335 182 -415 255 l-44 39 36 121 37 121 -57 131 c-31 72
-60 128 -63 124 -4 -4 -28 -70 -53 -145 l-45 -137 29 -60 c15 -34 25 -61 21
-61 -7 1 -55 62 -108 140 -29 42 -71 121 -107 199 -18 40 -20 35 93 158 55 60
57 65 63 130 4 37 7 106 7 153 l0 85 -105 -105 -105 -105 0 -90 c0 -54 -4 -84
-9 -75 -17 30 -53 238 -58 340 l-6 105 109 64 c60 35 111 65 113 67 5 4 81
257 81 271 0 11 -209 -96 -242 -124 -9 -8 -24 -47 -33 -86 -27 -111 -36 -113
-29 -7 7 130 6 125 74 214 51 68 60 86 59 120 -1 59 -23 264 -29 269 -3 3 -42
-47 -88 -109z m1058 -2024 c0 -5 -2 -10 -4 -10 -3 0 -8 5 -11 10 -3 6 -1 10 4
10 6 0 11 -4 11 -10z"/>
<path d="M2137 3223 c-13 -13 -7 -356 7 -416 17 -71 30 -86 116 -131 81 -43
168 -62 315 -71 61 -3 129 -8 153 -11 l42 -5 0 -163 0 -162 -159 -12 c-87 -7
-185 -17 -216 -23 -73 -13 -162 -52 -199 -87 -54 -51 -60 -78 -64 -307 l-4
-210 126 -1 126 -1 0 209 c0 249 3 262 82 307 58 34 113 47 231 55 l77 6 0
-290 0 -290 125 0 125 0 0 284 c0 157 4 287 9 290 5 3 55 1 112 -4 83 -8 117
-16 167 -41 94 -46 95 -51 97 -309 l2 -215 119 4 c65 1 121 5 123 7 8 8 0 390
-10 425 -31 120 -171 174 -506 195 l-113 7 0 162 0 163 31 6 c17 3 56 6 86 6
82 0 241 19 303 36 73 20 150 68 179 110 20 29 25 52 31 162 5 70 8 170 7 222
l-2 95 -125 0 -125 0 -3 -219 c-3 -255 -3 -256 -105 -305 -51 -25 -81 -32
-165 -39 -57 -4 -105 -6 -107 -3 -3 2 -5 132 -5 287 l0 283 -125 0 -125 0 -2
-287 -3 -287 -70 3 c-144 6 -248 45 -292 111 -22 33 -23 42 -23 247 l0 214
-118 0 c-65 0 -122 -3 -125 -7z"/>
<path d="M945 2459 c-33 -19 -45 -41 -45 -80 0 -29 6 -42 26 -58 80 -63 179
38 112 113 -27 30 -65 40 -93 25z m35 -123 c0 -11 -19 -15 -25 -6 -3 5 1 10 9
10 9 0 16 -2 16 -4z"/>
<path d="M1185 2445 c-50 -49 -22 -126 53 -141 26 -5 36 -1 63 25 26 27 30 37
25 64 -13 70 -94 100 -141 52z m55 -105 c0 -5 -4 -10 -10 -10 -5 0 -10 5 -10
10 0 6 5 10 10 10 6 0 10 -4 10 -10z"/>
<path d="M4479 2457 c-43 -33 -49 -84 -15 -123 41 -48 115 -35 137 25 27 70
-64 143 -122 98z m11 -107 c0 -5 -4 -10 -10 -10 -5 0 -10 5 -10 10 0 6 5 10
10 10 6 0 10 -4 10 -10z"/>
<path d="M4725 2445 c-37 -36 -34 -86 6 -119 37 -31 67 -33 103 -5 21 16 26
29 26 64 0 35 -5 48 -26 64 -36 28 -79 27 -109 -4z m25 -95 c0 -5 -4 -10 -10
-10 -5 0 -10 5 -10 10 0 6 5 10 10 10 6 0 10 -4 10 -10z"/>
<path d="M1335 1948 c-32 -17 -45 -39 -45 -75 0 -89 132 -112 160 -28 14 42
-5 85 -45 103 -32 15 -44 15 -70 0z m30 -118 c3 -5 -1 -10 -10 -10 -9 0 -13 5
-10 10 3 6 8 10 10 10 2 0 7 -4 10 -10z"/>
<path d="M4370 1953 c-73 -28 -81 -115 -13 -151 54 -29 117 10 117 72 0 55
-56 97 -104 79z m-10 -113 c0 -5 -4 -10 -10 -10 -5 0 -10 5 -10 10 0 6 5 10
10 10 6 0 10 -4 10 -10z"/>
<path d="M1095 1840 c-33 -13 -47 -37 -47 -77 0 -73 86 -110 137 -58 44 43 29
112 -29 135 -31 12 -34 12 -61 0z m25 -120 c0 -5 -5 -10 -11 -10 -5 0 -7 5 -4
10 3 6 8 10 11 10 2 0 4 -4 4 -10z"/>
<path d="M4579 1821 c-36 -36 -37 -70 -3 -110 51 -61 144 -23 144 59 0 30 -53
80 -85 80 -16 0 -38 -12 -56 -29z m21 -91 c0 -5 -4 -10 -10 -10 -5 0 -10 5
-10 10 0 6 5 10 10 10 6 0 10 -4 10 -10z"/>
<path d="M1669 1491 c-40 -40 -36 -93 10 -128 31 -24 96 -8 123 31 22 31 -1
98 -39 115 -39 18 -63 13 -94 -18z m41 -101 c0 -5 -2 -10 -4 -10 -3 0 -8 5
-11 10 -3 6 -1 10 4 10 6 0 11 -4 11 -10z"/>
<path d="M3975 1495 c-52 -51 -12 -135 65 -135 48 0 75 28 75 80 0 52 -27 80
-77 80 -28 0 -46 -7 -63 -25z m25 -85 c0 -5 -4 -10 -10 -10 -5 0 -10 5 -10 10
0 6 5 10 10 10 6 0 10 -4 10 -10z"/>
<path d="M1520 1307 c-78 -40 -53 -157 34 -157 44 0 75 26 82 71 10 63 -59
115 -116 86z m20 -117 c0 -5 -4 -10 -10 -10 -5 0 -10 5 -10 10 0 6 5 10 10 10
6 0 10 -4 10 -10z"/>
<path d="M4157 1300 c-33 -26 -41 -63 -22 -100 17 -33 43 -50 75 -50 27 0 80
52 80 79 0 74 -77 115 -133 71z"/>
<path d="M3475 1225 c-52 -51 -17 -135 56 -135 50 0 79 27 79 75 0 46 -37 85
-80 85 -19 0 -40 -9 -55 -25z"/>
<path d="M2059 1019 c-48 -18 -64 -89 -29 -127 45 -48 113 -41 136 13 32 77
-31 143 -107 114z"/>
<path d="M3604 999 c-11 -13 -19 -35 -19 -59 0 -52 27 -80 76 -80 29 0 43 6
63 31 14 17 26 37 26 45 0 24 -28 71 -45 78 -34 13 -82 6 -101 -15z"/>
<path d="M2507 664 c-8 -8 1 -24 14 -24 5 0 9 7 9 15 0 15 -12 20 -23 9z"/>
<path d="M346 652 c-3 -5 -8 -28 -12 -50 -8 -50 8 -56 31 -12 18 34 43 50 79
50 33 0 33 -5 -5 -182 -35 -160 -42 -178 -68 -178 -10 0 -24 -7 -31 -15 -11
-13 -1 -15 84 -15 97 0 120 10 67 28 l-29 10 13 69 c48 250 57 283 81 283 44
0 74 -18 74 -45 0 -16 6 -25 15 -25 8 0 15 6 15 14 0 7 3 28 6 45 l7 31 -161
0 c-89 0 -163 -4 -166 -8z"/>
<path d="M750 553 c-24 -9 -60 -45 -60 -61 0 -8 -8 -21 -17 -28 -11 -8 -13
-13 -5 -14 19 0 14 -17 -8 -23 -17 -4 -20 -14 -20 -69 0 -83 17 -108 71 -108
42 0 81 30 94 71 11 32 20 21 20 -23 0 -42 1 -43 36 -46 24 -2 43 3 60 17 l24
19 -35 -1 c-33 -2 -35 0 -38 31 -2 19 1 47 7 64 6 17 9 34 6 36 -12 12 -54
-24 -71 -60 -33 -74 -95 -101 -115 -50 -33 85 47 252 113 234 14 -3 19 -1 14
6 -7 12 -49 15 -76 5z"/>
<path d="M1945 550 c-3 -5 1 -10 10 -10 9 0 13 5 10 10 -3 6 -8 10 -10 10 -2
0 -7 -4 -10 -10z"/>
<path d="M3285 550 c4 -6 10 -8 15 -5 5 3 11 1 15 -5 3 -5 11 -10 16 -10 6 0
7 4 4 10 -3 6 1 7 9 4 9 -3 16 -1 16 5 0 6 -18 11 -41 11 -25 0 -38 -4 -34
-10z"/>
<path d="M3510 547 c0 -4 -4 -5 -10 -2 -5 3 -10 0 -10 -8 0 -11 6 -12 34 -3
19 6 32 14 30 18 -6 9 -44 6 -44 -5z"/>
<path d="M5355 549 c-4 -6 -5 -13 -2 -16 7 -7 27 6 27 18 0 12 -17 12 -25 -2z"/>
<path d="M854 525 c3 -28 26 -60 26 -36 0 7 7 19 15 28 19 18 18 18 -17 27
-24 5 -26 4 -24 -19z"/>
<path d="M1030 535 c0 -8 2 -15 4 -15 2 0 6 7 10 15 3 8 1 15 -4 15 -6 0 -10
-7 -10 -15z"/>
<path d="M3570 535 c0 -8 5 -15 10 -15 6 0 10 7 10 15 0 8 -4 15 -10 15 -5 0
-10 -7 -10 -15z"/>
<path d="M5165 541 c-3 -5 -1 -12 5 -16 5 -3 10 1 10 9 0 18 -6 21 -15 7z"/>
<path d="M5420 540 c0 -5 5 -10 10 -10 6 0 10 5 10 10 0 6 -4 10 -10 10 -5 0
-10 -4 -10 -10z"/>
<path d="M3236 518 c-10 -38 -7 -45 17 -44 18 1 22 7 22 31 0 37 -29 47 -39
13z"/>
<path d="M2142 518 c-14 -14 -16 -28 -2 -28 5 0 14 9 20 20 12 22 1 27 -18 8z"/>
<path d="M3584 485 c-28 -48 -67 -75 -109 -75 -29 0 -30 8 -10 57 17 39 13 52
-8 35 -8 -7 -17 -9 -20 -5 -4 3 -7 1 -7 -5 0 -6 5 -14 10 -17 6 -3 10 -11 10
-17 0 -7 -4 -7 -13 1 -8 6 -17 8 -20 4 -12 -11 -7 -23 9 -23 8 0 12 -5 9 -10
-4 -6 -10 -8 -15 -5 -13 8 -30 -29 -30 -65 0 -38 24 -86 49 -100 49 -26 151
-2 151 36 0 13 -3 13 -22 0 -27 -19 -78 -21 -102 -3 -9 7 -20 32 -23 55 l-6
42 42 0 c78 0 151 54 151 112 0 40 -15 34 -46 -17z"/>
<path d="M1033 503 c-18 -7 -16 -38 2 -53 18 -15 11 -30 -16 -30 -11 0 -19 -7
-19 -17 0 -13 3 -14 11 -6 6 6 17 9 24 7 17 -7 37 50 23 64 -8 8 -7 16 2 27
10 12 10 15 -1 14 -8 0 -20 -3 -26 -6z"/>
<path d="M3887 493 c-11 -10 -8 -43 3 -43 6 0 10 11 10 25 0 26 -2 29 -13 18z"/>
<path d="M1366 482 c-11 -11 -6 -42 7 -42 14 0 37 19 37 31 0 9 -37 18 -44 11z"/>
<path d="M5301 458 c-4 -13 -14 -53 -21 -91 -11 -58 -10 -70 4 -91 21 -33 48
-40 90 -22 47 19 46 36 -1 33 l-38 -2 1 45 c0 25 4 69 8 98 8 49 7 52 -13 52
-13 0 -25 -9 -30 -22z"/>
<path d="M2297 450 c-4 -8 -9 -31 -12 -50 -16 -100 -16 -121 -5 -135 14 -17
53 -20 81 -5 30 17 23 30 -11 20 -21 -6 -30 -5 -30 3 0 7 -4 6 -10 -3 -7 -11
-8 -9 -6 10 2 14 6 32 9 40 13 35 17 70 8 70 -5 0 -11 15 -13 33 -3 21 -6 27
-11 17z m5 -112 c-7 -7 -12 -8 -12 -2 0 14 12 26 19 19 2 -3 -1 -11 -7 -17z"/>
<path d="M3211 407 c-14 -63 -14 -130 1 -145 23 -23 118 -9 118 18 0 5 -15 6
-33 3 -60 -9 -65 16 -31 153 5 18 2 22 -19 20 -21 -1 -26 -8 -36 -49z"/>
<path d="M3681 429 c-22 -63 -10 -149 23 -171 29 -20 74 -8 105 27 39 45 41
68 2 26 -60 -64 -102 -25 -85 79 6 33 7 60 3 60 -4 0 -14 3 -22 6 -10 3 -18
-5 -26 -27z"/>
<path d="M5140 450 c0 -5 7 -7 15 -4 8 4 15 8 15 10 0 2 -7 4 -15 4 -8 0 -15
-4 -15 -10z"/>
<path d="M1855 440 c3 -5 8 -10 11 -10 2 0 4 5 4 10 0 6 -5 10 -11 10 -5 0 -7
-4 -4 -10z"/>
<path d="M3061 423 c-1 -12 -5 -25 -11 -28 -16 -10 -12 -25 7 -25 9 0 13 3 10
7 -4 3 -3 11 2 17 5 6 5 20 0 31 -7 19 -8 19 -8 -2z"/>
<path d="M4030 425 c0 -8 7 -15 16 -15 8 0 12 -4 9 -10 -3 -6 1 -7 10 -4 9 4
14 13 11 21 -3 8 -6 17 -6 19 0 2 -9 4 -20 4 -11 0 -20 -7 -20 -15z"/>
<path d="M4962 428 c-13 -17 -33 -135 -25 -154 10 -28 40 -36 78 -20 42 18 46
36 8 33 -27 -2 -28 -1 -28 53 0 30 4 65 8 78 7 18 5 22 -11 22 -11 0 -24 -6
-30 -12z"/>
<path d="M1690 405 c-9 -11 -10 -16 -2 -11 8 5 12 1 12 -13 0 -25 16 -36 24
-16 3 8 1 15 -4 15 -5 0 -10 10 -12 22 -3 21 -4 21 -18 3z"/>
<path d="M2120 405 c0 -9 6 -12 15 -9 8 4 15 10 15 15 0 5 -7 9 -15 9 -8 0
-15 -7 -15 -15z"/>
<path d="M3890 404 c0 -8 5 -12 10 -9 6 4 8 11 5 16 -9 14 -15 11 -15 -7z"/>
<path d="M5150 413 c-20 -8 -28 -21 -41 -67 -21 -77 12 -118 76 -92 42 18 46
36 8 33 l-28 -2 1 68 c0 37 0 67 0 66 -1 0 -8 -3 -16 -6z"/>
<path d="M4307 390 c-9 -35 -9 -42 3 -35 6 3 10 1 10 -6 0 -7 7 -4 15 7 20 26
21 61 1 45 -11 -9 -15 -9 -18 1 -3 7 -7 1 -11 -12z"/>
<path d="M3870 390 c-1 -8 -2 -18 -1 -22 0 -5 -4 -7 -11 -5 -7 1 -12 -14 -13
-38 -1 -22 -11 -79 -23 -127 l-20 -88 54 0 c41 0 54 4 54 15 0 9 -9 15 -21 15
-21 0 -21 3 -16 58 4 31 9 68 13 82 14 55 16 93 6 86 -6 -3 -12 4 -15 16 -2
13 -5 16 -7 8z"/>
<path d="M4181 381 c-14 -25 -1 -35 15 -13 16 20 17 32 4 32 -5 0 -14 -8 -19
-19z"/>
<path d="M4697 388 c-15 -12 -15 -18 0 -76 l16 -63 -34 -35 c-46 -48 -86 -67
-137 -66 -35 0 -43 -3 -40 -16 5 -26 78 -27 132 -4 29 13 57 38 84 73 51 68
112 169 112 186 0 27 -20 11 -46 -37 -27 -49 -44 -57 -44 -19 0 11 -4 17 -10
14 -6 -4 -7 6 -4 25 7 32 -2 38 -29 18z"/>
<path d="M2137 383 c-11 -10 -8 -43 3 -43 6 0 10 11 10 25 0 26 -2 29 -13 18z"/>
<path d="M2990 379 c0 -5 5 -7 10 -4 6 3 10 8 10 11 0 2 -4 4 -10 4 -5 0 -10
-5 -10 -11z"/>
<path d="M1000 369 c0 -5 5 -7 10 -4 6 3 10 8 10 11 0 2 -4 4 -10 4 -5 0 -10
-5 -10 -11z"/>
<path d="M1980 370 c0 -5 5 -10 11 -10 5 0 7 5 4 10 -3 6 -8 10 -11 10 -2 0
-4 -4 -4 -10z"/>
<path d="M4045 340 c12 -85 14 -90 39 -90 16 0 35 13 55 39 40 50 40 77 0 31
-24 -29 -31 -32 -39 -20 -5 8 -10 26 -11 40 0 14 -3 19 -6 12 -3 -9 -11 -6
-24 10 l-20 22 6 -44z"/>
<path d="M4488 362 c-10 -2 -18 -7 -18 -12 0 -4 -13 -22 -29 -39 -37 -40 -69
-41 -84 -2 -7 19 -17 29 -29 28 -25 -2 -30 -24 -13 -58 13 -24 22 -29 54 -29
32 0 44 6 70 35 17 20 31 40 31 45 0 6 3 10 8 10 4 0 7 -19 7 -42 0 -42 1 -43
36 -46 24 -2 43 3 60 17 l24 19 -35 -1 c-32 -2 -35 1 -38 27 -4 35 -21 53 -44
48z"/>
<path d="M2994 351 c4 -5 1 -11 -5 -13 -18 -6 20 -90 40 -86 21 4 45 105 25
105 -7 0 -15 -6 -18 -14 -3 -7 -10 -13 -15 -13 -6 0 -8 7 -5 15 4 10 0 15 -11
15 -9 0 -14 -4 -11 -9z"/>
<path d="M1516 342 c-6 -6 17 -42 26 -42 5 0 8 11 8 23 0 21 -21 33 -34 19z"/>
<path d="M1976 340 c-2 -3 -6 -17 -10 -32 -12 -52 -92 -52 -116 -1 -18 39 -35
37 -35 -3 0 -34 31 -54 88 -54 52 0 93 23 106 61 6 18 11 33 11 33 0 5 -42 1
-44 -4z"/>
<path d="M2442 303 c2 -24 8 -37 16 -35 6 1 12 -2 12 -8 0 -5 9 -10 20 -10 21
0 27 14 11 24 -5 4 -12 0 -14 -6 -4 -10 -6 -10 -6 0 -1 6 -9 12 -18 12 -17 1
-17 1 0 14 24 18 22 46 -4 46 -17 0 -20 -5 -17 -37z"/>
<path d="M983 310 c3 -11 1 -23 -4 -26 -19 -12 -8 -34 17 -34 18 0 24 4 21 13
-3 8 -1 20 3 27 6 9 3 18 -8 27 -25 18 -35 16 -29 -7z"/>
<path d="M2767 310 c-3 -11 -16 -24 -30 -29 -52 -20 -40 -31 32 -31 71 0 94
12 46 24 -14 4 -23 11 -20 16 4 6 0 17 -8 25 -13 12 -15 12 -20 -5z"/>
<path d="M5477 319 c-10 -6 -17 -22 -17 -39 0 -26 4 -30 29 -30 28 0 41 14 41
45 0 21 -32 35 -53 24z"/>
<path d="M2086 298 c-10 -39 -7 -48 18 -48 19 0 25 6 28 29 2 17 1 28 -4 25
-4 -3 -8 0 -8 5 0 21 -28 11 -34 -11z"/>
<path d="M1490 291 c0 -5 7 -17 16 -26 18 -18 75 -17 81 1 5 14 -45 25 -53 12
-3 -4 -10 -6 -15 -2 -5 3 -7 10 -4 15 4 5 -1 9 -9 9 -9 0 -16 -4 -16 -9z"/>
<path d="M1720 271 c0 -4 11 -6 25 -3 14 2 25 6 25 8 0 2 -11 4 -25 4 -14 0
-25 -4 -25 -9z"/>
</g>
</svg>
