<?xml version="1.0" standalone="no"?>
<!DOCTYPE svg PUBLIC "-//W3C//DTD SVG 20010904//EN"
 "http://www.w3.org/TR/2001/REC-SVG-20010904/DTD/svg10.dtd">
<svg version="1.0" xmlns="http://www.w3.org/2000/svg"
 width="600.000000pt" height="800.000000pt" viewBox="0 0 600.000000 800.000000"
 preserveAspectRatio="xMidYMid meet">

<g transform="translate(0.000000,800.000000) scale(0.100000,-0.100000)"
fill="#000000" stroke="none">
<path d="M660 5757 c-19 -26 -75 -100 -124 -165 l-88 -117 6 -122 c3 -67 11
-157 17 -200 10 -80 9 -330 -2 -303 -12 29 -59 228 -59 248 0 28 -44 62 -185
144 -66 39 -133 79 -148 90 -16 11 -31 18 -33 15 -6 -6 12 -80 65 -275 17 -62
31 -114 31 -117 0 -4 140 -97 255 -170 33 -21 63 -43 67 -49 4 -6 8 -51 8
-101 0 -137 46 -461 77 -543 22 -60 9 -63 -22 -5 -43 80 -96 167 -111 184 -8
9 -29 19 -47 22 -18 4 -102 22 -187 42 -85 19 -158 35 -162 35 -16 0 -6 -21
52 -111 33 -52 75 -121 94 -155 20 -34 42 -67 50 -73 15 -13 73 -29 273 -78
l111 -27 22 -65 c40 -121 204 -407 292 -506 55 -63 28 -52 -119 51 l-59 42
-104 -24 c-58 -13 -149 -34 -202 -46 -54 -13 -98 -27 -98 -33 1 -9 24 -25 125
-88 66 -41 144 -94 169 -115 18 -14 38 -22 50 -19 12 2 90 18 174 36 84 17
163 33 176 37 19 4 34 -3 68 -34 84 -77 124 -109 193 -154 108 -70 267 -164
329 -195 52 -25 70 -52 23 -34 -44 17 -191 42 -212 37 -11 -3 -48 -27 -81 -53
-33 -26 -102 -79 -152 -118 -50 -38 -91 -75 -91 -81 -1 -7 34 -17 87 -24 48
-7 128 -21 177 -31 50 -10 98 -19 109 -19 10 0 42 18 70 41 119 94 247 189
255 189 4 0 39 -14 77 -31 84 -38 115 -51 131 -55 18 -3 176 -56 193 -64 9 -4
36 -11 60 -15 25 -4 77 -15 115 -25 95 -25 61 -37 -42 -16 -147 30 -131 37
-302 -119 -83 -77 -151 -142 -151 -146 0 -11 44 -18 194 -29 218 -17 197 -22
304 78 173 162 176 165 230 159 69 -6 172 -28 172 -36 0 -8 -126 -31 -169 -31
-56 0 -72 -19 -55 -64 8 -21 33 -20 157 3 240 46 276 49 377 34 52 -8 131 -22
174 -31 43 -9 100 -16 125 -16 41 -1 46 2 49 23 2 13 0 27 -5 32 -5 5 -62 17
-126 26 -64 9 -117 20 -117 24 0 5 108 27 219 43 18 3 41 -11 92 -58 163 -148
201 -181 215 -189 15 -8 252 6 354 21 l44 7 -154 143 -155 144 -70 -7 c-38 -3
-83 -10 -100 -15 -63 -18 -107 -22 -103 -9 2 7 73 29 158 50 164 41 444 136
475 161 23 19 38 11 198 -112 139 -107 147 -111 181 -104 16 4 99 18 184 33
86 14 157 31 158 36 3 9 -246 205 -306 242 -24 14 -35 13 -125 -6 -55 -12
-110 -24 -122 -27 -54 -14 -14 15 85 63 133 64 354 210 450 299 66 60 76 66
105 60 74 -14 186 -37 247 -51 110 -25 110 -25 283 91 88 58 155 110 150 114
-4 4 -80 24 -168 45 -88 20 -174 41 -192 46 -36 12 -41 9 -166 -84 -43 -33
-81 -56 -84 -53 -3 3 17 31 44 63 111 131 220 320 284 493 l25 64 54 12 c30 7
115 27 189 46 l134 34 103 168 c57 92 104 174 104 181 0 12 -7 12 -42 1 -24
-8 -113 -29 -199 -47 l-157 -33 -50 -86 c-28 -47 -59 -103 -71 -125 -33 -66
-43 -75 -35 -35 3 19 10 40 14 45 26 35 69 305 76 480 3 72 7 140 10 152 4 22
43 50 203 149 103 64 127 88 139 141 14 67 81 314 87 324 14 22 -20 17 -57 -9
-24 -15 -102 -63 -174 -105 l-130 -77 -27 -110 c-15 -61 -30 -131 -34 -155 -3
-25 -10 -45 -14 -45 -14 0 1 348 22 532 8 64 7 93 -1 109 -14 26 -178 249
-220 299 l-29 35 -1 -50 c0 -27 -9 -124 -20 -215 -11 -91 -20 -170 -20 -175 0
-6 41 -64 90 -130 50 -66 92 -129 95 -140 6 -31 25 -298 21 -302 -3 -3 -19 48
-51 167 -25 89 -37 105 -103 140 -31 16 -109 59 -172 94 -63 35 -117 62 -119
60 -3 -3 39 -145 74 -249 7 -22 21 -65 29 -97 15 -53 19 -58 79 -93 207 -120
252 -151 251 -176 -4 -63 -5 -65 -19 -34 -19 44 -46 64 -96 71 -87 12 -155
-72 -129 -159 16 -54 60 -79 125 -74 42 4 54 10 82 42 26 30 33 34 33 19 -1
-62 -73 -470 -86 -483 -2 -2 -4 50 -4 117 l0 122 -79 88 c-98 108 -219 227
-225 221 -2 -2 0 -98 6 -214 l9 -209 87 -95 c48 -52 102 -110 120 -130 17 -19
32 -36 32 -37 0 -8 -64 -150 -89 -195 -52 -98 -228 -346 -238 -336 -2 3 12 37
31 76 20 39 36 82 36 96 0 24 -112 370 -130 405 -7 12 -10 9 -19 -10 -5 -14
-42 -98 -81 -188 -38 -90 -70 -168 -70 -174 0 -13 52 -186 81 -271 12 -32 19
-64 16 -70 -12 -33 -401 -307 -436 -307 -3 0 -40 -20 -81 -45 -41 -25 -78 -45
-82 -45 -21 0 11 33 83 85 44 32 81 68 84 79 3 12 10 68 16 126 5 58 17 150
24 205 8 54 12 101 10 103 -3 4 -153 -120 -263 -218 l-52 -47 -15 -114 c-39
-309 -31 -280 -80 -297 -16 -6 -88 -31 -160 -57 -71 -26 -143 -51 -160 -55
-263 -70 -377 -99 -410 -104 -22 -4 -95 -20 -162 -37 -67 -16 -135 -29 -150
-29 -16 0 -78 11 -138 25 -61 14 -135 30 -165 36 -106 21 -470 122 -585 163
l-40 14 43 17 c48 19 81 59 88 107 7 43 -28 96 -80 122 -36 17 -43 18 -79 5
-74 -26 -102 -103 -64 -178 9 -19 16 -36 14 -38 -2 -1 -24 4 -49 13 -43 14
-46 18 -51 57 -13 112 -39 314 -43 334 -2 11 -39 50 -81 85 -43 34 -112 96
-154 136 -82 79 -93 79 -79 1 4 -24 15 -116 25 -204 21 -184 17 -177 153 -283
39 -31 72 -60 72 -65 0 -4 -28 7 -62 26 -35 19 -94 51 -133 72 -144 78 -305
189 -408 281 l-37 34 19 58 c10 31 27 86 37 122 9 36 21 70 25 75 4 6 10 27
14 48 7 37 5 44 -55 182 -5 11 -18 43 -30 70 -12 28 -27 64 -35 80 -7 17 -15
39 -17 50 -2 11 -10 20 -18 20 -11 0 -31 -50 -68 -165 -30 -91 -61 -181 -69
-201 -14 -35 -14 -38 27 -119 23 -45 39 -84 37 -86 -5 -5 -52 55 -143 185 -61
86 -112 179 -157 282 l-24 55 35 40 c19 21 72 79 116 127 45 49 84 94 88 101
8 14 13 414 6 422 -3 2 -71 -64 -152 -148 l-146 -153 0 -115 c0 -78 -3 -110
-10 -100 -5 8 -10 27 -10 43 0 15 -4 35 -9 45 -18 32 -51 262 -58 396 l-6 133
34 20 c19 11 65 38 102 59 38 21 89 51 115 66 26 15 50 29 54 30 7 3 37 94 94
288 14 47 27 93 30 103 8 26 -11 21 -84 -22 -37 -21 -107 -60 -157 -86 -49
-27 -99 -56 -110 -66 -13 -12 -29 -53 -44 -116 -14 -54 -28 -102 -33 -108 -10
-11 -10 -15 1 147 l9 126 80 105 c44 58 85 114 91 125 10 18 0 153 -27 402
l-7 65 -35 -48z"/>
<path d="M2849 5734 c-5 -6 -10 -188 -11 -405 l-3 -394 -80 3 c-120 4 -194 13
-234 29 -72 28 -124 58 -163 93 -61 54 -67 91 -66 407 l0 268 -173 0 -174 0 0
-290 c0 -279 1 -292 23 -347 15 -38 35 -67 60 -86 52 -40 188 -103 242 -113
25 -4 65 -12 90 -18 25 -5 128 -15 230 -21 102 -6 200 -14 218 -17 l32 -5 0
-228 0 -228 -77 -5 c-152 -10 -369 -26 -422 -33 -116 -14 -274 -88 -339 -157
-13 -13 -31 -56 -42 -95 -18 -63 -20 -103 -20 -342 l0 -270 176 2 176 3 2 285
c1 303 8 355 51 393 11 9 61 37 110 62 88 43 94 44 230 54 77 5 143 7 147 3 4
-4 9 -188 10 -407 l3 -400 179 0 179 0 -2 401 c-1 221 1 404 6 406 16 10 292
-11 314 -23 13 -7 31 -16 39 -20 8 -5 35 -20 60 -33 53 -28 84 -60 99 -99 7
-18 11 -140 11 -328 l0 -300 178 4 177 5 3 213 c4 350 -12 447 -90 515 -39 34
-144 86 -208 103 -74 21 -441 64 -516 61 -27 -1 -55 -1 -61 -1 -10 1 -13 54
-13 230 l0 228 53 7 c28 3 140 13 248 20 242 18 360 47 453 113 121 85 127
108 135 453 4 151 5 283 3 293 -4 16 -19 17 -181 15 l-176 -3 -5 -305 c-5
-299 -5 -306 -29 -343 -23 -38 -89 -79 -191 -119 -36 -14 -185 -31 -295 -33
-6 0 -12 144 -15 403 l-5 403 -168 2 c-112 1 -172 -2 -178 -9z"/>
<path d="M645 4670 c-11 -4 -31 -20 -45 -34 -20 -22 -24 -37 -24 -83 0 -48 3
-58 27 -79 15 -13 45 -29 67 -35 73 -22 141 30 144 109 2 86 -92 154 -169 122z"/>
<path d="M5623 4666 c-40 -18 -63 -62 -63 -119 0 -34 6 -49 28 -70 101 -97
252 -1 199 126 -27 62 -101 91 -164 63z"/>
<path d="M254 4651 c-43 -26 -59 -71 -48 -129 19 -99 136 -123 208 -43 24 26
27 97 6 135 -29 55 -108 72 -166 37z"/>
<path d="M5096 3950 c-16 -5 -39 -19 -52 -31 -83 -78 -27 -199 93 -199 70 0
120 59 110 132 -6 46 -29 75 -74 94 -36 16 -37 16 -77 4z"/>
<path d="M810 3937 c-62 -31 -76 -135 -26 -186 23 -23 35 -26 90 -26 74 0 100
16 118 76 14 47 -1 88 -44 124 -33 28 -95 34 -138 12z"/>
<path d="M449 3772 c-25 -23 -33 -38 -36 -79 -3 -29 0 -59 7 -72 29 -55 124
-78 177 -44 29 19 53 69 53 108 0 96 -129 151 -201 87z"/>
<path d="M5402 3780 c-72 -44 -67 -161 11 -209 31 -20 92 -16 127 9 36 25 50
56 50 106 0 46 -12 68 -54 93 -42 26 -92 27 -134 1z"/>
<path d="M4571 3332 c-35 -19 -71 -72 -71 -105 0 -33 29 -82 59 -100 41 -24
112 -22 144 3 15 12 31 37 36 58 29 105 -76 195 -168 144z"/>
<path d="M1313 3320 c-66 -40 -83 -125 -36 -180 35 -42 64 -52 116 -40 112 25
135 170 35 221 -47 24 -75 24 -115 -1z"/>
<path d="M1074 3041 c-95 -41 -80 -194 22 -230 38 -13 43 -13 85 10 50 28 69
58 69 114 0 30 -7 50 -28 74 -23 28 -36 34 -77 37 -28 2 -60 0 -71 -5z"/>
<path d="M4783 3026 c-25 -22 -28 -31 -28 -84 0 -69 23 -103 80 -122 56 -19
124 21 145 85 15 44 -11 110 -51 130 -45 24 -113 19 -146 -9z"/>
<path d="M3849 2937 c-62 -42 -70 -135 -17 -184 32 -29 59 -35 109 -24 57 13
89 51 89 106 -1 49 -17 80 -56 106 -39 25 -84 24 -125 -4z"/>
<path d="M1853 2639 c-50 -15 -83 -62 -83 -119 0 -42 4 -52 34 -78 43 -38 81
-46 132 -30 51 17 77 64 70 125 -7 57 -23 80 -69 98 -42 17 -40 17 -84 4z"/>
<path d="M4043 2624 c-73 -36 -79 -162 -10 -205 48 -30 112 -20 155 26 21 23
32 45 32 65 0 101 -89 157 -177 114z"/>
</g>
</svg>
